{"glyphs":{":":{"x_min":0,"x_max":219,"ha":219,"o":"m 136 340 q 136 366 151 381 q 166 396 188 396 q 207 396 223 380 q 238 364 238 344 q 238 322 223 306 q 207 290 185 290 q 164 290 150 304 q 136 319 136 340 z m 42 41 q 42 63 58 79 q 73 94 94 94 q 116 94 131 79 q 147 64 147 46 q 147 21 132 6 q 116 -10 95 -10 q 74 -10 58 5 q 42 21 42 41 z"},"$":{"x_min":0,"x_max":438,"ha":438,"o":"m 99 38 l 188 286 q 199 317 201 326 q 157 392 157 450 q 157 514 198 559 q 239 604 303 610 l 310 629 l 323 629 q 326 629 331 628 l 325 609 q 352 604 385 591 l 399 628 l 420 629 q 418 622 411 601 q 408 595 403 580 q 460 537 460 478 q 460 461 452 451 q 443 440 431 440 q 418 440 409 451 q 400 462 400 485 q 400 489 401 504 l 402 515 q 402 533 393 549 l 303 299 q 308 290 325 264 q 342 239 344 235 q 352 220 357 199 q 363 179 363 156 q 363 111 340 71 q 316 30 275 8 q 247 -8 191 -14 l 157 -106 l 136 -105 q 147 -71 164 -27 q 167 -19 169 -12 q 137 -7 108 4 l 68 -106 l 48 -105 q 49 -100 62 -65 l 89 15 q 51 39 31 71 q 12 103 12 131 q 12 145 20 154 q 28 164 40 164 q 53 164 63 152 q 72 140 74 112 q 76 84 81 68 q 87 52 99 38 z m 287 315 l 376 567 q 352 589 317 589 l 242 378 q 247 364 287 315 z m 229 403 l 295 586 q 292 587 290 587 q 279 587 261 576 q 236 561 223 534 q 210 508 210 473 q 210 432 229 403 z m 176 6 l 262 246 q 257 253 247 266 q 236 278 216 305 l 114 25 q 147 6 176 6 z m 277 225 l 198 6 q 242 8 275 44 q 308 80 308 131 q 308 180 277 225 z"},"?":{"x_min":0,"x_max":365,"ha":365,"o":"m 188 530 q 178 529 172 529 q 169 529 163 529 q 171 579 206 607 q 240 636 292 636 q 342 636 379 602 q 417 568 417 506 q 417 474 404 446 q 392 418 368 396 q 352 379 274 327 q 219 289 197 269 q 174 250 161 224 q 154 209 154 193 q 154 174 165 164 q 182 148 203 148 q 222 148 238 166 q 259 189 269 218 q 277 217 284 211 q 282 178 255 152 q 228 125 199 125 q 170 125 147 150 q 124 175 124 211 q 124 246 139 278 q 153 310 185 341 q 207 362 264 403 q 322 444 335 457 q 359 479 371 503 q 377 517 377 535 q 377 563 350 588 q 323 613 290 613 q 248 613 219 587 q 203 574 188 530 z m 110 35 l 110 41 q 110 64 126 81 q 142 97 161 97 q 176 97 188 83 q 201 69 201 48 q 201 23 185 5 q 170 -12 151 -12 q 135 -12 123 1 q 110 15 110 35 z"},"<":{"x_min":0,"x_max":667,"ha":667,"o":"m 630 70 l 107 292 l 107 331 l 630 552 l 630 505 l 164 312 l 630 117 z"},"'":{"x_min":0,"x_max":219,"ha":219,"o":"m 131 392 l 146 537 q 153 599 159 620 q 168 650 185 664 q 202 677 223 677 q 241 677 251 667 q 261 658 261 643 q 261 631 256 618 q 250 599 220 536 l 153 392 z"},"=":{"x_min":0,"x_max":667,"ha":667,"o":"m 107 445 l 630 445 l 630 402 l 107 402 z m 107 219 l 630 219 l 630 176 l 107 176 z"},"a":{"x_min":0,"x_max":406,"ha":406,"o":"m 371 354 q 375 362 377 367 q 383 381 389 386 q 402 387 409 387 q 417 387 425 384 l 426 378 q 426 375 424 369 q 422 366 417 351 l 414 341 l 381 253 q 361 194 345 159 q 330 124 319 88 q 308 51 298 36 l 296 31 q 296 28 302 23 q 324 35 339 49 q 378 86 385 95 q 391 101 396 106 q 401 102 406 96 q 393 77 360 44 q 328 12 302 -2 q 282 -12 265 -12 q 253 -12 248 -7 q 242 -2 242 5 q 242 12 247 31 q 259 63 264 73 q 269 83 277 105 q 282 118 297 151 q 288 142 274 124 q 235 74 184 29 q 172 19 127 -3 q 110 -10 88 -12 q 69 -11 62 -8 q 51 -1 43 12 q 38 22 38 44 q 38 75 52 113 q 75 178 99 209 q 140 264 180 295 q 221 327 254 342 q 299 361 332 361 q 342 361 352 359 q 362 357 371 354 z m 138 33 q 150 36 159 42 q 164 44 197 68 q 256 128 264 137 q 281 156 303 189 q 309 198 328 235 l 340 269 q 347 299 347 303 q 347 317 336 329 q 329 336 312 336 q 293 336 279 330 q 249 315 223 293 q 189 262 157 214 q 125 166 112 134 q 94 89 94 67 q 94 49 102 41 q 109 32 120 32 q 124 32 138 33 z"},"L":{"x_min":0,"x_max":635,"ha":635,"o":"m 4 14 l 71 20 q 79 21 94 25 q 106 32 112 41 q 121 52 124 67 q 135 124 165 326 l 199 557 l 199 562 q 199 579 198 584 q 196 588 191 595 q 178 603 155 608 q 132 613 107 613 q 107 622 110 632 q 149 632 164 631 q 202 629 265 629 q 275 629 285 629 q 299 631 313 631 l 375 631 l 375 622 q 375 618 374 612 q 366 611 355 610 q 324 609 304 601 q 293 596 285 583 q 278 569 269 527 q 266 501 265 489 l 250 395 l 217 205 q 207 150 201 101 q 195 52 195 48 q 195 32 202 26 q 212 18 234 18 l 292 18 l 393 17 q 446 17 490 26 q 533 34 571 55 q 595 68 617 92 q 625 101 652 145 q 654 148 659 155 q 668 155 675 153 q 673 136 670 127 l 637 20 q 633 7 627 -3 q 595 -5 582 -5 l 553 -4 l 431 -5 l 358 -4 l 265 -5 l 163 -2 l 122 -1 l 52 -4 q 45 -4 2 -4 l 2 0 q 2 6 4 14 z"},"3":{"x_min":0,"x_max":469,"ha":469,"o":"m 229 517 l 209 526 q 224 574 264 603 q 303 632 349 632 q 400 632 427 608 q 453 583 453 546 q 453 522 441 501 q 430 479 407 461 q 397 454 316 398 q 367 387 389 360 q 412 333 412 292 q 412 229 365 154 q 317 79 230 33 q 143 -12 51 -12 q 41 -12 21 -11 l 26 9 q 86 9 144 31 q 201 52 245 92 q 289 132 315 182 q 342 232 342 275 q 342 311 323 332 q 304 353 274 353 q 254 353 227 338 q 188 319 171 302 q 160 312 158 320 q 187 345 232 373 q 297 412 320 431 q 352 457 367 484 q 382 512 382 542 q 382 563 367 578 q 352 592 327 592 q 300 592 273 574 q 247 557 229 517 z"},";":{"x_min":0,"x_max":219,"ha":219,"o":"m 229 301 q 214 292 202 292 q 180 292 165 307 q 149 322 149 344 q 149 367 165 383 q 181 398 203 398 q 223 398 237 384 q 251 369 251 348 q 251 321 229 301 z m 0 -138 q 7 -132 18 -125 q 94 -68 94 -24 q 94 -12 77 3 q 61 18 56 26 q 49 39 49 52 q 49 78 68 104 q 78 118 92 118 q 111 118 125 99 q 146 72 146 33 q 146 -21 106 -75 q 65 -128 5 -157 z"},"J":{"x_min":0,"x_max":323,"ha":323,"o":"m 0 -222 q 26 -215 44 -191 q 70 -159 86 -92 q 111 14 115 42 q 117 60 144 170 q 152 207 155 219 q 155 223 156 227 l 180 356 l 208 500 l 221 564 q 226 587 227 598 q 192 612 131 622 l 131 626 q 131 630 132 637 q 143 639 146 639 q 152 639 166 637 q 176 636 190 636 l 245 634 q 334 634 373 639 q 380 639 384 639 l 390 639 l 390 624 q 385 620 383 619 l 348 615 q 308 610 301 604 q 295 591 292 572 q 289 559 285 542 l 281 526 l 279 515 q 258 391 239 312 l 196 98 q 177 14 156 -54 q 134 -123 94 -175 q 66 -212 26 -233 q -5 -248 -40 -248 q -62 -248 -82 -241 q -92 -237 -109 -223 q -117 -214 -117 -198 q -117 -185 -108 -176 q -98 -167 -85 -167 q -69 -167 -56 -176 q -47 -182 -35 -203 q -22 -223 -10 -223 q -6 -223 0 -222 z"},"V":{"x_min":0,"x_max":802,"ha":802,"o":"m 118 635 q 118 638 121 639 l 227 637 l 282 636 l 376 637 q 385 637 398 636 l 389 616 q 361 613 349 612 q 314 611 303 605 q 292 600 287 591 q 280 580 279 545 l 269 257 q 263 140 263 88 l 263 80 l 262 53 l 262 47 q 316 95 365 146 q 382 165 399 180 q 536 324 564 349 q 571 355 600 384 q 642 426 677 469 l 688 480 l 717 510 l 786 585 q 796 595 797 598 q 798 600 798 604 q 793 610 784 612 q 769 617 736 618 q 724 619 709 621 l 709 637 q 738 635 762 635 l 798 633 l 806 633 q 817 634 842 634 q 870 638 886 638 q 900 638 926 637 l 926 620 q 918 618 905 617 q 893 615 883 612 q 853 600 842 594 l 813 571 l 699 458 q 687 447 675 436 q 592 348 576 333 q 559 318 548 306 l 317 70 q 304 55 299 51 l 221 -19 l 211 -19 q 207 -19 198 -19 l 205 209 l 207 243 l 206 257 l 212 388 l 214 486 q 215 517 215 540 q 215 550 215 559 q 215 568 215 571 l 215 589 q 215 599 210 604 q 205 609 192 612 q 129 617 119 618 z"},"\"":{"x_min":0,"x_max":417,"ha":417,"o":"m 336 392 l 351 535 q 356 590 358 600 q 365 631 375 648 q 383 660 398 669 q 413 677 430 677 q 446 677 456 668 q 466 659 466 644 q 466 631 458 611 q 440 560 428 535 l 359 392 z m 124 392 l 139 537 q 146 599 152 620 q 161 650 178 664 q 196 677 216 677 q 233 677 243 667 q 253 658 253 643 q 253 631 249 617 q 242 597 213 536 l 145 392 z"},"7":{"x_min":0,"x_max":469,"ha":469,"o":"m 439 548 l 376 550 l 280 550 q 239 550 225 547 q 197 541 180 541 q 163 541 153 547 q 148 550 148 554 l 151 563 l 168 612 q 295 610 433 610 q 455 610 465 611 q 485 614 497 614 q 508 614 515 609 q 519 607 519 603 q 519 598 454 503 l 121 4 q 108 -12 98 -12 q 87 -12 83 -9 q 81 -8 81 -5 q 81 2 97 20 q 118 44 158 116 l 161 122 q 164 126 186 161 l 334 386 q 358 423 439 548 z"},"S":{"x_min":0,"x_max":500,"ha":500,"o":"m 45 130 q 54 130 62 128 q 66 60 101 21 q 125 5 156 3 l 174 2 q 204 1 236 11 q 267 22 281 36 q 299 55 316 91 q 323 107 323 134 q 323 150 321 161 q 317 179 307 207 q 296 235 280 270 l 233 368 q 221 393 208 436 q 202 455 202 483 q 202 522 218 552 q 234 583 264 605 q 294 628 317 635 q 349 645 386 645 q 454 645 523 616 q 522 588 516 566 q 508 535 499 513 q 490 513 483 514 q 482 541 471 578 q 465 599 443 614 q 422 629 393 629 q 338 629 306 596 q 273 563 273 508 q 273 478 282 449 q 291 421 333 336 q 354 294 365 266 q 367 261 379 225 q 390 189 391 182 q 394 168 394 150 q 394 81 344 40 q 277 -15 168 -15 q 99 -15 29 7 l 29 10 q 29 19 34 45 q 36 55 42 105 q 43 114 45 130 z"},"}":{"x_min":0,"x_max":479,"ha":479,"o":"m 134 677 l 134 694 q 215 684 266 629 q 317 574 317 507 q 317 471 306 425 q 295 378 295 352 q 295 317 324 287 q 354 256 406 250 l 406 229 q 354 223 324 192 q 295 162 295 127 q 295 101 306 54 q 317 8 317 -28 q 317 -94 266 -149 q 215 -205 134 -216 l 134 -199 q 191 -185 218 -154 q 244 -123 244 -86 q 244 -57 233 -10 q 222 38 222 70 q 222 120 258 167 q 294 213 366 238 q 296 264 259 312 q 222 359 222 408 q 222 441 233 489 q 244 536 244 565 q 244 602 218 633 q 191 664 134 677 z"},"Z":{"x_min":0,"x_max":604,"ha":604,"o":"m 42 1 l 42 7 l 50 18 q 152 133 266 276 l 482 549 q 493 563 515 593 q 524 604 533 613 q 480 616 422 616 q 393 616 327 612 q 282 608 263 602 q 237 593 222 580 q 207 567 185 528 q 182 517 174 503 q 164 503 150 505 q 156 542 161 563 l 180 634 q 200 635 476 635 l 608 636 q 616 636 631 635 q 631 630 631 626 q 631 622 630 617 q 617 598 612 591 l 506 462 q 494 448 480 431 q 467 414 415 350 l 331 244 l 253 150 l 178 60 q 156 35 146 22 l 158 21 q 223 21 268 23 q 279 24 285 24 l 333 25 q 359 25 413 32 q 433 34 460 43 q 466 45 478 57 q 498 74 505 85 q 527 123 541 150 l 560 148 l 560 145 l 559 139 q 537 17 533 2 l 377 2 q 340 2 272 1 l 176 1 l 81 0 q 61 0 42 1 z"},"x":{"x_min":0,"x_max":500,"ha":500,"o":"m 79 90 q 77 83 75 80 q 66 57 66 50 q 66 43 71 38 q 77 32 84 32 q 91 32 97 35 q 118 45 173 95 q 229 146 259 177 q 247 206 232 230 l 182 315 q 171 330 163 335 q 157 339 151 339 q 143 339 138 332 q 129 270 127 260 q 115 270 111 279 q 104 296 104 322 q 104 347 118 373 q 133 398 150 398 q 169 398 189 379 q 220 349 282 236 q 292 218 297 211 l 391 296 q 458 356 490 378 q 503 387 518 392 q 524 395 531 395 q 542 395 549 385 q 557 376 557 361 q 557 317 528 295 q 517 289 511 289 q 504 289 494 292 q 514 318 514 328 q 514 335 508 342 q 502 344 500 344 q 495 344 484 340 q 477 337 452 320 q 412 292 376 258 l 309 195 q 371 78 383 63 q 393 51 402 51 q 410 51 417 59 q 428 71 428 76 l 426 109 l 427 113 q 434 113 438 111 q 450 93 450 62 q 450 53 442 28 q 437 11 424 1 q 412 -9 400 -9 q 388 -9 376 -1 q 365 7 338 44 q 334 51 289 129 l 271 159 q 263 152 229 119 q 140 33 102 8 q 74 -10 54 -10 q 34 -10 21 2 q 9 14 9 32 q 9 54 27 73 q 45 93 63 93 q 69 93 79 90 z"},")":{"x_min":0,"x_max":271,"ha":271,"o":"m -64 -253 l -78 -243 q -24 -197 12 -155 q 48 -113 57 -97 q 60 -92 78 -65 q 97 -39 133 38 q 170 114 189 194 q 214 295 214 407 q 214 462 206 510 q 199 558 176 645 l 189 653 q 257 502 257 348 q 257 236 224 130 q 184 4 106 -94 q 28 -193 -64 -253 z"},"&":{"x_min":0,"x_max":906,"ha":906,"o":"m 402 408 l 407 396 q 416 403 438 426 l 506 501 q 533 535 540 551 q 542 556 542 567 q 521 570 515 578 q 505 589 505 603 q 505 624 520 640 q 535 655 556 655 q 572 655 584 643 q 596 631 596 616 q 596 590 577 557 q 559 524 504 466 q 491 453 488 448 l 352 299 q 344 290 325 268 q 262 193 190 119 q 210 102 228 91 q 256 75 287 63 q 294 61 334 53 q 353 49 386 49 q 425 49 485 64 q 544 79 585 105 q 642 142 676 183 q 696 207 704 215 q 720 237 730 250 q 746 277 758 296 q 761 303 768 316 q 774 329 777 337 l 712 385 q 678 411 653 420 q 641 426 627 426 q 599 426 583 410 q 566 394 566 366 q 566 345 574 333 q 579 325 586 325 q 590 325 596 326 q 600 352 606 359 q 613 366 625 366 q 635 366 642 359 q 649 350 649 335 q 649 320 637 309 q 625 298 606 298 q 582 298 564 317 q 546 337 546 368 q 546 404 577 434 q 608 464 652 464 q 683 464 710 454 q 747 440 798 404 q 849 368 869 359 q 889 350 907 350 q 926 350 943 368 q 959 386 959 415 q 959 439 947 453 q 935 467 920 467 q 916 467 914 466 q 913 464 912 458 q 919 447 919 439 q 919 431 913 425 q 906 419 895 419 q 883 419 876 427 q 869 434 869 446 q 869 463 881 475 q 894 487 916 487 q 939 487 959 466 q 978 446 978 413 q 978 373 946 341 q 915 309 872 309 q 837 309 797 327 q 776 292 764 269 q 736 217 687 158 q 650 114 587 70 q 524 26 462 8 q 400 -10 338 -10 q 245 -10 168 50 q 92 109 92 205 q 92 234 104 277 q 117 319 143 359 q 153 375 189 406 q 216 429 250 444 q 276 455 311 455 q 344 455 372 441 q 388 434 402 408 z m 178 137 q 185 144 198 159 q 235 200 240 206 l 323 296 q 365 344 373 354 q 352 355 344 363 q 335 370 335 387 q 335 395 338 401 q 343 414 343 417 q 343 423 335 428 q 328 434 306 434 q 287 434 270 425 q 244 413 222 392 q 193 362 175 333 q 167 320 154 270 q 151 258 151 222 q 151 213 159 179 q 169 151 178 137 z"},"_":{"x_min":0,"x_max":500,"ha":500,"o":"m -6 -75 l 506 -75 l 506 -125 l -6 -125 z"},"v":{"x_min":0,"x_max":344,"ha":344,"o":"m 84 261 l 69 260 l 64 260 q 93 336 141 383 q 164 406 186 406 q 199 406 209 395 q 220 383 220 363 q 220 342 215 320 q 210 297 192 249 l 148 137 q 128 91 125 81 l 118 62 q 107 35 107 25 q 107 22 111 12 q 116 10 119 10 l 150 25 q 209 70 225 87 q 255 119 293 172 q 312 197 323 229 q 330 251 330 273 q 330 298 319 357 q 319 380 331 396 q 339 407 349 407 q 359 407 369 395 q 379 382 379 358 q 379 295 344 221 q 320 169 265 104 q 210 39 150 3 q 121 -15 89 -15 q 79 -15 65 -10 q 53 1 53 13 q 53 33 64 62 q 118 191 158 305 q 166 326 166 340 q 166 349 161 355 q 158 359 153 359 q 143 359 129 342 q 105 311 84 261 z"},"O":{"x_min":0,"x_max":677,"ha":677,"o":"m 82 283 q 82 333 102 386 q 122 439 154 495 q 165 515 228 577 q 248 598 314 628 q 342 642 384 644 q 396 645 412 647 q 429 649 441 649 q 542 649 618 553 q 674 482 674 359 q 674 316 656 259 q 639 202 604 153 q 569 104 524 63 q 478 23 427 5 q 376 -14 326 -14 q 263 -14 211 19 q 159 52 126 105 q 82 180 82 283 z m 226 49 q 242 34 254 28 q 266 21 306 9 q 316 6 335 7 l 355 8 q 409 21 427 32 q 457 50 484 84 q 521 131 546 188 q 570 244 581 285 q 597 341 597 388 q 597 432 586 473 q 576 514 569 527 q 551 561 531 582 q 510 603 482 615 q 455 627 424 627 q 373 627 326 602 q 280 576 247 533 q 214 490 184 405 q 154 320 154 249 q 154 174 177 117 q 189 87 226 49 z"},"(":{"x_min":0,"x_max":271,"ha":271,"o":"m 418 652 l 429 640 q 344 565 292 490 q 222 389 180 260 q 139 132 139 -5 q 139 -121 178 -247 l 164 -255 q 95 -110 95 51 q 95 223 176 382 q 257 541 418 652 z"},"C":{"x_min":0,"x_max":625,"ha":625,"o":"m 702 637 q 700 620 692 583 q 683 546 677 527 l 663 528 l 663 541 q 663 594 652 607 q 640 621 603 621 q 588 620 580 620 l 562 620 q 548 621 544 621 q 510 621 467 607 q 424 594 364 557 q 336 539 281 487 q 259 467 207 392 l 190 363 l 169 310 q 162 284 158 260 q 155 236 155 211 q 155 178 163 149 q 170 120 182 104 q 208 72 237 51 q 266 29 304 18 q 342 6 392 6 q 443 6 476 21 q 509 35 534 62 q 542 71 581 131 l 597 126 l 571 43 q 564 21 560 12 q 528 0 495 -5 q 430 -16 369 -16 q 280 -16 231 1 q 183 19 137 61 q 104 91 87 138 q 70 185 70 225 q 70 285 89 328 q 128 417 178 470 q 229 523 298 564 q 348 594 414 620 q 480 646 550 646 l 636 646 q 667 646 702 637 z"},"W":{"x_min":0,"x_max":885,"ha":885,"o":"m 106 616 l 107 634 l 118 635 q 140 637 152 637 l 164 636 l 180 636 l 255 635 l 282 634 q 287 634 302 632 l 303 629 q 303 625 301 618 q 277 611 262 611 q 248 606 244 601 q 237 590 236 570 l 234 514 l 231 454 l 232 444 q 232 425 230 375 l 230 325 l 227 269 l 227 235 l 224 136 l 220 83 q 219 77 219 67 q 236 83 243 92 q 258 112 274 127 q 281 134 295 152 q 318 181 375 242 q 385 253 392 262 l 393 281 l 408 468 q 413 514 413 572 q 413 590 406 598 q 394 609 365 615 q 355 617 349 619 l 348 634 q 354 634 386 636 l 412 636 l 423 636 l 454 635 l 486 636 l 552 635 l 556 636 q 559 636 563 633 l 563 621 q 556 618 541 616 q 502 609 490 600 q 479 591 479 556 q 479 534 472 425 q 468 366 468 357 l 468 344 q 485 365 500 381 q 514 396 595 494 q 605 506 618 525 q 669 584 669 593 q 669 596 666 599 q 659 605 646 609 l 634 613 q 627 615 621 616 q 614 618 607 621 l 606 626 q 606 630 608 637 l 613 636 l 643 638 l 792 637 q 792 625 789 618 q 782 617 779 616 q 756 613 736 603 q 716 592 698 575 q 658 539 631 507 l 504 354 q 488 335 479 326 q 469 313 461 305 l 458 236 q 458 229 457 214 l 449 102 q 447 79 447 66 q 454 73 456 76 l 534 165 q 542 174 565 199 q 571 205 600 238 q 612 251 626 266 q 635 275 642 283 l 807 472 l 870 543 q 896 574 902 585 q 906 592 908 604 q 901 607 886 610 q 875 613 866 614 q 860 615 843 619 l 843 634 l 882 637 l 901 637 l 920 637 q 981 637 1004 637 l 1002 618 q 964 604 949 591 q 926 574 833 468 l 664 277 l 646 256 l 626 235 l 516 112 l 399 -17 l 394 -17 q 387 -17 377 -16 l 377 -4 l 376 3 q 376 6 377 12 q 378 21 382 101 l 388 186 l 387 207 l 388 224 q 383 220 365 199 q 363 197 350 184 q 336 170 321 150 q 294 121 188 -1 q 185 -6 173 -17 l 148 -18 l 148 -12 l 152 171 l 157 332 l 163 505 q 166 534 166 540 l 166 561 l 166 580 q 165 592 159 603 q 157 608 151 611 q 146 614 131 614 q 116 614 106 616 z"},"A":{"x_min":0,"x_max":760,"ha":760,"o":"m 48 29 q 54 34 62 41 l 70 47 l 184 161 q 204 181 210 186 q 216 191 224 199 q 231 208 243 219 q 255 230 262 238 q 282 256 289 263 q 357 326 470 438 l 576 541 q 588 553 597 561 q 627 595 645 614 q 650 619 670 641 q 676 642 682 642 q 688 642 699 641 l 699 635 q 696 595 696 577 q 692 557 692 521 l 686 433 q 685 422 683 381 l 665 152 l 666 141 l 665 116 l 665 108 q 663 103 663 100 l 662 58 l 662 52 l 661 32 q 665 25 682 23 q 725 19 746 11 l 747 5 q 747 1 744 -7 q 727 -4 723 -3 l 663 0 l 619 0 q 577 -5 550 -5 l 538 -7 l 524 -6 q 502 -8 499 -8 q 491 -8 481 -6 l 482 7 q 496 11 514 13 q 544 15 568 21 q 575 23 577 23 l 580 23 q 585 28 586 33 q 589 42 596 110 q 604 178 604 213 q 604 231 605 239 q 599 240 577 240 q 549 240 403 236 l 305 232 q 301 232 294 231 q 288 228 278 217 q 268 207 252 196 q 231 173 188 135 q 171 120 159 106 l 123 67 q 116 62 110 56 q 106 52 103 49 q 99 44 96 39 q 97 34 97 27 q 110 20 132 18 q 143 17 154 15 q 170 12 178 12 q 184 11 188 9 q 188 1 185 -8 l 94 -1 l 27 -5 q 12 -5 4 -6 l 0 -6 q -4 -6 -18 -8 l -41 -8 q -47 -8 -54 -6 q -55 1 -55 10 l -49 12 l 4 17 l 38 23 q 41 24 48 29 z m 417 256 q 428 256 434 256 l 445 256 l 506 259 l 586 264 q 597 266 606 266 q 608 275 609 293 q 612 312 612 316 l 622 458 l 629 549 q 623 546 601 527 q 590 521 573 504 l 460 397 l 441 378 q 430 366 419 357 q 408 348 398 337 q 393 332 385 325 q 377 319 370 312 q 363 306 356 298 q 349 290 339 281 q 333 274 320 260 q 328 255 356 255 l 381 255 q 399 256 417 256 z"},"f":{"x_min":0,"x_max":219,"ha":219,"o":"m -169 -188 q -160 -183 -155 -183 q -138 -183 -125 -206 q -120 -215 -115 -222 q -103 -234 -88 -234 q -68 -234 -38 -210 q -12 -184 10 -134 q 32 -83 49 -26 l 97 139 q 102 154 106 172 l 138 287 q 151 331 158 349 q 149 350 145 350 q 142 350 129 349 q 117 348 72 348 q 73 362 75 373 q 85 374 97 374 l 167 376 q 189 448 216 511 q 233 549 265 587 q 290 616 323 633 q 339 642 365 642 q 396 642 415 625 q 434 608 434 590 q 434 579 426 570 q 418 562 409 562 q 396 562 386 570 q 376 578 372 596 q 368 608 362 614 q 356 619 346 619 q 336 619 329 615 q 313 607 295 585 q 283 569 268 538 q 254 506 237 448 q 220 391 218 377 l 231 376 l 277 377 q 280 377 292 376 q 293 372 293 369 q 293 362 290 351 l 209 348 l 193 293 l 152 146 q 149 134 146 127 q 138 104 136 92 l 100 -23 q 76 -90 52 -134 q 28 -177 -7 -212 q -33 -237 -62 -249 q -80 -256 -110 -256 q -151 -256 -167 -243 q -183 -230 -183 -212 q -183 -195 -169 -188 z"},"Q":{"x_min":0,"x_max":688,"ha":688,"o":"m 221 -13 q 213 -10 201 -6 q 139 16 102 72 q 66 127 66 206 q 66 260 80 301 q 101 367 149 437 q 197 506 247 545 q 313 597 389 625 q 439 644 495 644 q 549 644 581 628 q 613 612 638 578 q 664 544 681 491 q 690 463 690 413 q 690 340 668 282 q 641 207 572 121 q 519 54 443 19 q 366 -17 277 -17 l 256 -17 q 254 -17 244 -18 q 237 -26 232 -33 q 208 -62 179 -91 l 222 -106 q 265 -121 290 -132 q 330 -149 353 -156 q 399 -169 440 -177 q 481 -184 514 -184 q 609 -184 669 -125 l 680 -136 q 657 -164 631 -182 q 593 -209 551 -222 q 509 -235 482 -235 l 467 -235 l 411 -233 q 358 -226 341 -221 q 293 -207 245 -184 q 197 -162 137 -131 q 111 -158 62 -187 q 28 -207 -13 -209 l -42 -210 q -65 -208 -81 -192 q -98 -176 -98 -159 q -98 -128 -62 -103 q -17 -69 67 -69 q 103 -69 157 -85 q 159 -82 170 -72 q 181 -63 198 -44 q 214 -25 221 -13 z m 447 610 q 426 604 396 585 q 380 575 336 538 q 310 515 300 502 q 275 476 233 419 l 177 325 q 157 291 144 254 q 130 217 124 189 q 120 169 120 146 q 120 106 129 86 q 146 50 179 29 q 211 8 255 8 q 296 8 344 28 q 391 47 452 105 q 512 163 555 233 q 612 328 625 373 q 644 435 644 471 q 644 514 625 550 q 606 587 577 606 q 547 625 510 625 q 504 625 479 620 q 460 616 447 610 z m 17 -104 q -7 -104 -32 -113 q -58 -122 -67 -135 q -77 -147 -77 -159 q -77 -172 -64 -183 q -51 -193 -21 -193 q 8 -193 38 -178 q 81 -157 100 -139 q 105 -134 107 -132 l 114 -125 q 112 -124 105 -122 q 91 -119 80 -115 q 48 -104 17 -104 z"},"w":{"x_min":0,"x_max":531,"ha":531,"o":"m 86 285 l 74 291 q 86 335 112 368 q 138 401 164 401 q 183 401 196 384 q 209 368 209 324 q 209 278 188 213 q 166 148 109 36 q 136 45 172 72 q 225 109 261 152 q 278 173 302 214 q 326 254 331 270 q 340 298 340 325 q 340 338 335 345 q 332 350 326 350 q 319 350 313 346 q 304 340 294 327 l 269 286 l 255 293 q 273 333 289 355 q 312 386 325 394 q 338 401 347 401 q 367 401 378 389 q 395 369 395 323 q 395 278 368 195 q 342 112 298 36 q 390 76 466 165 q 524 233 524 318 q 524 321 523 353 q 523 370 531 385 q 538 400 549 400 q 562 400 570 393 q 578 385 578 370 q 578 324 554 267 q 530 210 474 143 q 434 95 374 56 q 337 32 249 -9 q 221 -19 219 -19 q 215 -19 207 -15 q 207 -7 208 -5 q 209 -2 217 7 q 261 73 286 125 q 311 176 318 205 q 278 140 245 108 q 198 63 106 7 q 64 -18 45 -18 q 41 -18 38 -15 q 35 -12 35 -8 q 35 -1 37 4 q 38 6 56 40 q 89 100 104 137 q 132 204 146 258 q 156 296 156 321 q 156 335 150 343 q 146 348 139 348 q 131 348 120 337 q 109 327 86 285 z"},"-":{"x_min":0,"x_max":260,"ha":260,"o":"m 52 174 q 54 181 60 191 q 65 202 68 209 q 70 212 72 217 l 83 218 l 98 218 q 103 218 125 219 l 140 219 l 164 220 l 206 219 q 211 219 222 218 q 239 219 242 219 q 246 219 258 218 q 261 218 269 217 q 259 187 250 171 q 240 170 229 169 l 221 171 q 198 170 193 170 q 180 172 170 172 q 121 172 94 170 q 80 173 52 174 z"},"E":{"x_min":0,"x_max":688,"ha":688,"o":"m 109 21 q 111 29 113 42 q 140 172 148 227 l 179 393 q 180 398 186 441 l 202 523 q 207 543 209 575 q 209 582 209 588 q 209 599 201 605 q 193 610 145 613 l 114 615 q 114 624 117 633 l 177 633 l 250 634 l 290 633 l 634 637 q 646 637 656 636 q 663 635 674 635 q 673 623 664 575 q 658 546 651 527 q 644 528 639 533 q 633 562 633 571 q 631 595 631 598 q 630 601 626 613 q 610 616 599 616 q 593 617 583 618 q 573 617 565 618 l 552 617 l 537 617 l 503 615 l 465 615 l 438 614 l 428 615 l 409 614 l 401 614 l 383 614 l 371 614 l 322 612 q 310 611 300 609 q 295 607 283 602 q 282 591 279 574 l 267 512 l 257 455 l 255 440 q 244 382 241 357 q 240 351 239 343 q 264 346 377 353 q 515 360 523 363 q 542 368 553 378 q 563 388 590 447 l 609 449 q 604 421 588 347 q 586 338 583 321 q 582 309 575 282 q 572 271 571 265 q 569 247 566 239 q 557 240 549 240 l 548 242 q 548 245 550 251 q 552 261 552 286 q 552 318 542 328 q 532 338 497 338 q 463 338 416 332 q 379 331 313 326 l 279 324 l 270 322 q 256 322 249 321 q 245 320 236 320 q 229 280 225 264 q 214 223 210 199 l 181 53 q 180 44 180 38 q 180 33 183 25 q 193 17 203 14 q 212 11 239 11 q 245 11 263 10 q 269 10 271 10 l 349 13 l 368 14 l 381 14 q 410 14 446 20 q 455 21 469 22 q 532 30 581 66 q 617 94 639 149 l 646 149 q 649 149 654 148 q 648 125 611 -3 q 559 -5 459 -5 l 388 -6 l 367 -6 l 305 -8 l 261 -7 l 213 -8 l 106 -7 l 82 -8 l 40 -7 l -2 -8 l -3 7 l 42 9 l 73 13 q 85 16 109 21 z"},"s":{"x_min":0,"x_max":292,"ha":292,"o":"m 56 83 q 81 83 96 46 q 104 27 111 21 q 118 15 129 15 q 150 15 169 35 q 184 49 184 80 q 184 103 167 150 q 144 218 144 256 q 144 312 174 356 q 205 399 270 399 q 298 399 314 384 q 331 369 331 348 q 331 333 323 324 q 315 315 305 315 q 283 315 266 336 q 249 356 243 360 q 237 363 225 363 q 211 363 201 351 q 190 339 190 323 q 190 283 214 213 q 237 142 237 103 q 237 78 222 52 q 207 27 174 9 q 142 -9 107 -9 q 66 -9 46 9 q 26 26 26 51 q 26 65 34 74 q 42 83 56 83 z"},">":{"x_min":0,"x_max":667,"ha":667,"o":"m 107 552 l 630 330 l 630 291 l 107 70 l 107 117 l 573 310 l 107 504 z"},"l":{"x_min":0,"x_max":219,"ha":219,"o":"m 222 632 l 223 646 q 283 650 313 650 l 335 650 l 335 643 l 320 596 q 319 594 284 505 l 218 333 q 201 285 160 184 l 144 142 q 126 95 116 79 q 100 53 100 40 l 102 32 q 118 34 144 54 q 181 83 211 128 q 221 130 226 130 l 232 129 q 213 94 191 71 q 156 36 143 27 q 114 5 87 -6 q 70 -13 53 -13 q 44 -13 40 -9 q 36 -4 36 2 q 36 25 114 204 q 138 258 164 328 q 209 450 233 502 q 258 554 269 595 q 270 600 270 603 q 270 610 263 616 q 254 624 222 632 z"},"8":{"x_min":0,"x_max":469,"ha":469,"o":"m 232 318 q 163 398 163 471 q 163 508 190 549 q 216 589 257 611 q 297 632 350 632 q 411 632 443 602 q 475 573 475 528 q 475 501 462 478 q 444 442 413 416 q 381 390 304 339 q 351 286 369 246 q 388 206 388 165 q 388 89 334 38 q 281 -14 198 -14 q 129 -14 87 23 q 46 61 46 107 q 46 139 64 170 q 88 212 133 250 q 163 276 232 318 z m 289 356 q 364 413 390 453 q 417 494 417 537 q 417 572 396 592 q 375 613 340 613 q 311 613 285 597 q 258 581 243 549 q 228 518 228 487 q 228 459 241 430 q 253 400 289 356 z m 248 301 q 197 266 176 242 q 145 208 128 168 q 112 128 112 90 q 112 54 136 31 q 161 7 202 7 q 253 7 290 45 q 326 83 326 139 q 326 174 309 211 q 292 248 248 301 z"},"\\":{"x_min":0,"x_max":500,"ha":500,"o":"m 55 696 l 98 696 l 445 -135 l 402 -135 z"},"e":{"x_min":0,"x_max":292,"ha":292,"o":"m 118 176 q 102 132 102 86 q 102 53 118 33 q 128 20 146 20 q 156 20 165 24 q 183 33 196 46 q 208 59 223 79 q 237 100 246 125 l 252 125 q 258 125 266 124 q 251 69 193 17 q 157 -16 119 -16 q 93 -16 75 7 q 51 38 51 92 q 51 116 58 148 q 65 181 74 203 q 89 237 107 268 l 145 322 q 181 361 186 365 q 203 380 220 387 q 237 395 256 395 q 280 395 298 375 q 316 355 316 325 q 316 298 302 272 q 288 246 272 233 l 231 207 q 225 204 195 195 q 165 186 118 176 z m 126 201 q 142 200 175 213 q 193 220 223 240 q 235 248 250 266 q 265 285 273 305 q 281 326 281 347 q 281 361 272 371 q 264 380 254 380 q 241 380 223 365 q 192 338 159 276 q 134 229 126 201 z"},"b":{"x_min":0,"x_max":406,"ha":406,"o":"m 225 616 q 212 625 187 625 l 179 625 l 180 639 q 193 642 233 643 q 242 643 295 646 q 294 639 266 552 l 229 438 q 225 419 205 360 l 152 186 l 223 279 q 285 352 295 361 q 322 385 342 393 q 363 402 378 402 q 396 402 411 385 q 430 362 430 332 q 430 269 397 200 q 364 131 306 75 q 268 38 195 4 q 154 -15 128 -15 q 100 -15 83 0 q 67 16 67 37 q 67 63 77 99 l 103 190 l 196 479 q 213 533 228 572 q 233 588 233 599 q 233 606 225 616 z m 148 6 q 164 6 181 16 q 215 35 257 84 q 299 133 315 158 q 347 211 368 264 q 383 303 383 333 q 383 346 374 355 q 365 363 351 363 q 337 363 321 354 q 290 335 248 285 q 180 205 160 172 q 141 139 128 97 q 115 55 115 41 q 115 26 125 16 q 134 6 148 6 z"},"%":{"x_min":0,"x_max":750,"ha":750,"o":"m 159 -32 l 200 36 q 219 66 239 95 q 273 144 380 315 l 581 632 l 585 634 q 607 632 609 632 l 403 298 q 375 252 372 246 q 367 237 359 229 l 351 217 q 327 181 312 155 q 307 146 302 138 l 188 -33 q 183 -33 163 -32 z m 72 412 q 72 462 101 522 q 131 583 170 608 q 210 633 249 633 q 286 633 308 607 q 331 581 331 523 q 331 480 316 441 q 305 414 291 389 q 276 365 258 347 q 230 319 207 308 q 183 297 160 297 q 123 297 97 327 q 72 357 72 412 z m 121 378 q 121 342 131 329 q 141 316 158 316 q 183 316 204 338 q 234 370 263 458 q 286 526 286 563 q 286 590 273 605 q 265 615 249 615 q 220 615 192 584 q 164 554 140 476 q 121 417 121 378 z m 476 108 q 476 159 505 219 q 535 279 574 304 q 614 330 653 330 q 690 330 712 304 q 735 278 735 220 q 735 177 720 138 q 709 110 695 86 q 680 62 662 44 q 634 16 610 5 q 586 -6 564 -6 q 527 -6 501 24 q 476 54 476 108 z m 525 75 q 525 39 535 26 q 545 13 562 13 q 587 13 607 35 q 638 66 667 155 q 690 223 690 260 q 690 287 678 302 q 669 312 652 312 q 624 312 596 281 q 568 250 543 173 q 525 114 525 75 z"},"m":{"x_min":0,"x_max":625,"ha":625,"o":"m 201 351 l 194 353 q 185 353 167 338 q 133 313 108 282 q 104 275 99 270 q 89 271 80 272 q 95 297 110 313 q 146 349 159 359 q 187 380 210 391 q 223 396 235 396 q 246 396 253 390 q 260 383 260 376 q 260 359 203 247 q 187 215 182 203 q 208 231 250 281 q 280 316 331 361 q 350 378 375 387 q 400 396 416 396 q 429 396 439 388 q 445 382 445 371 q 445 329 389 225 l 367 182 l 364 174 l 414 233 q 437 258 445 267 q 460 282 467 291 q 509 340 553 367 q 597 394 623 394 q 633 394 642 385 q 650 377 650 362 q 650 353 648 344 q 644 328 632 300 q 631 298 590 222 q 566 179 553 158 l 529 119 q 511 88 501 79 q 473 50 473 33 q 473 30 477 28 q 479 28 495 38 q 526 57 573 100 l 588 96 q 564 56 511 21 q 458 -14 416 -14 q 406 -14 398 -6 q 398 0 400 5 q 402 9 416 31 l 497 163 q 562 269 575 297 q 594 340 594 347 q 594 353 590 356 q 587 360 582 360 q 575 360 564 354 q 536 338 499 299 q 424 220 385 173 q 323 99 279 19 q 269 0 256 -12 q 246 -14 235 -14 q 220 -14 209 -11 q 211 -2 223 18 q 247 56 298 150 q 350 245 366 279 q 382 313 387 329 q 388 334 388 340 q 388 349 383 354 q 380 359 376 359 q 368 359 353 350 q 331 338 290 295 q 220 220 211 209 q 151 132 122 84 q 120 82 103 52 q 85 22 80 11 q 72 0 61 -11 q 48 -12 39 -12 q 33 -12 26 -10 l 24 -3 q 24 4 32 17 q 35 21 112 170 l 199 340 q 200 344 201 351 z"},"#":{"x_min":0,"x_max":667,"ha":667,"o":"m 82 463 l 245 463 l 288 667 l 331 667 l 288 463 l 510 463 l 552 667 l 595 667 l 552 463 l 656 463 l 656 420 l 544 420 l 502 222 l 656 222 l 656 179 l 494 179 l 452 -23 l 409 -23 l 451 179 l 228 179 l 187 -23 l 143 -23 l 185 179 l 82 179 l 82 222 l 194 222 l 236 420 l 82 420 z m 278 420 l 237 223 l 460 223 l 501 420 z"},",":{"x_min":0,"x_max":219,"ha":219,"o":"m -18 -145 q 31 -112 40 -104 q 66 -83 80 -59 q 94 -36 94 -18 q 94 -6 79 10 q 57 36 57 55 q 57 81 75 104 q 87 119 103 119 q 121 119 135 101 q 155 76 155 42 q 155 -4 111 -65 q 68 -125 -12 -161 z"},"n":{"x_min":0,"x_max":427,"ha":427,"o":"m 177 338 q 176 342 174 344 q 172 345 170 345 q 145 345 91 265 q 85 265 83 265 q 80 265 73 265 q 83 286 107 317 q 130 348 156 369 q 182 390 206 400 q 213 403 220 403 q 222 403 227 403 q 236 394 236 385 q 236 379 235 373 q 233 367 229 355 q 215 313 208 296 l 180 224 q 170 199 161 171 q 165 176 168 180 q 213 247 266 307 q 318 368 353 389 q 377 404 399 404 q 416 404 425 395 q 434 386 434 372 q 434 363 432 354 q 429 336 417 303 q 405 270 355 159 l 307 46 l 305 40 q 305 37 308 31 q 335 37 390 118 l 410 117 q 395 90 360 47 q 333 14 303 -4 q 286 -14 266 -14 q 254 -14 249 -9 q 243 -4 243 1 q 243 27 268 82 l 338 236 l 366 301 q 375 323 377 331 q 379 339 379 348 q 379 354 375 358 q 372 361 367 361 q 359 361 349 355 q 312 333 269 281 q 207 206 186 173 q 135 92 97 8 q 91 -6 83 -12 q 72 -14 67 -14 q 61 -14 47 -11 q 45 -7 45 -5 q 45 -1 50 13 q 61 44 103 146 l 114 173 z"},"h":{"x_min":0,"x_max":417,"ha":417,"o":"m 200 630 l 202 640 q 287 649 304 649 q 310 649 320 649 l 317 640 l 304 607 l 275 525 q 269 507 256 468 q 234 396 209 338 q 185 280 163 212 q 171 222 183 239 q 252 338 299 374 q 331 398 362 398 q 387 398 405 377 q 422 356 422 313 q 422 257 395 181 q 367 105 329 58 q 291 11 263 -3 q 236 -17 214 -17 q 195 -17 186 -6 q 171 9 171 25 q 171 32 179 39 q 187 45 199 45 q 209 45 215 41 q 221 37 233 19 q 241 11 247 11 q 256 11 272 32 q 304 74 343 192 q 375 285 375 333 q 375 359 368 369 q 360 378 348 378 q 341 378 332 374 q 306 360 275 328 q 244 296 178 204 q 163 183 129 110 q 95 38 83 8 q 77 -8 71 -12 q 65 -17 55 -17 q 44 -17 40 -13 q 35 -9 35 -1 q 35 7 43 25 l 78 113 q 81 119 83 125 l 222 520 l 242 577 q 250 598 250 606 q 250 612 247 615 q 244 618 235 620 q 216 624 200 630 z"},"z":{"x_min":0,"x_max":417,"ha":417,"o":"m 403 292 l 351 291 q 302 291 240 333 q 206 355 178 355 q 151 355 133 338 q 115 320 115 295 q 115 282 123 266 l 129 265 q 134 269 136 275 q 140 289 148 295 q 156 302 167 302 q 179 302 187 292 q 195 283 197 260 q 192 244 180 235 q 167 226 150 226 q 129 226 113 243 q 97 261 97 291 q 97 332 135 366 q 172 400 222 400 q 267 400 318 361 q 369 322 380 316 q 391 311 398 311 q 407 311 415 318 l 419 327 q 425 364 432 372 q 441 382 455 382 q 467 382 476 374 q 485 365 485 355 q 485 337 476 324 q 463 306 423 273 q 412 263 382 233 q 363 214 342 195 l 292 153 q 245 107 191 62 q 197 59 200 58 q 242 36 247 32 q 257 23 271 -2 q 286 -28 300 -78 l 325 -161 q 329 -173 339 -194 q 346 -202 352 -211 q 374 -236 412 -236 q 439 -236 449 -229 q 457 -225 457 -217 q 457 -213 455 -207 q 451 -204 438 -199 q 425 -195 422 -191 q 416 -183 416 -174 q 416 -163 426 -154 q 436 -145 450 -145 q 454 -145 460 -147 q 471 -151 479 -162 q 486 -174 486 -192 q 486 -220 466 -237 q 446 -254 403 -254 q 368 -254 352 -248 q 326 -237 303 -213 q 280 -188 264 -156 q 258 -143 241 -85 q 225 -27 220 -13 q 206 19 190 33 q 182 41 170 41 q 160 41 141 21 q 113 -8 89 -8 q 77 -8 68 1 q 59 10 59 22 q 59 38 76 52 q 94 66 129 66 q 150 66 155 68 q 169 75 209 110 l 354 241 q 375 258 403 292 z"},"B":{"x_min":0,"x_max":562,"ha":562,"o":"m 14 9 q 22 11 30 12 q 38 13 44 14 q 50 15 53 15 q 88 18 97 22 q 106 27 111 38 q 124 71 127 89 q 128 100 129 104 q 130 110 131 119 q 135 140 136 145 q 137 158 143 182 q 148 206 152 236 q 154 253 155 257 q 166 310 170 338 q 189 457 198 493 q 201 521 209 567 l 210 592 q 210 600 204 605 q 193 616 168 619 q 144 623 130 623 l 124 622 l 116 625 q 115 631 115 634 l 116 640 q 146 641 149 641 q 215 641 238 639 q 254 639 264 639 q 275 639 299 640 q 314 641 322 641 q 396 641 424 634 q 462 625 484 606 q 516 578 527 553 q 539 529 539 495 q 539 476 531 458 q 523 439 507 421 q 501 415 468 390 q 461 386 450 379 l 406 358 q 441 351 466 336 q 473 332 480 329 q 487 323 494 318 q 500 313 505 309 q 519 293 524 282 l 532 267 q 535 260 540 235 q 544 211 544 192 q 544 176 543 170 l 533 139 q 512 99 499 81 q 486 62 454 36 q 436 22 403 9 q 389 4 343 -4 l 336 -4 q 333 -4 308 -6 q 293 -8 284 -8 q 264 -8 202 -4 q 179 -3 166 0 l 124 2 l 118 1 l 98 -1 l 82 0 l 53 -4 q 34 -8 21 -8 q 17 -8 12 -7 z m 254 354 q 310 355 328 359 q 366 367 391 382 q 416 396 437 421 q 450 436 459 462 q 468 489 468 509 q 468 529 462 547 q 458 559 445 579 q 427 599 419 603 q 404 611 364 620 l 355 620 l 317 621 q 301 621 291 612 q 285 606 282 587 q 277 535 267 493 l 252 410 l 250 385 q 249 374 248 365 l 247 361 q 247 358 254 354 z m 238 327 q 236 301 221 237 q 217 219 209 164 q 190 78 190 53 q 190 30 201 21 q 213 13 270 13 q 316 13 351 25 q 357 28 363 31 q 386 41 399 53 q 427 79 438 103 q 458 144 460 152 q 468 191 468 219 q 468 231 465 246 q 461 261 454 279 q 441 294 435 300 q 428 305 404 321 q 394 324 384 328 q 378 330 375 330 q 360 333 355 334 l 325 335 l 302 334 l 283 334 l 240 331 z"},"K":{"x_min":0,"x_max":594,"ha":594,"o":"m 158 292 q 164 316 178 388 l 181 396 l 218 569 l 221 591 q 221 596 217 604 q 202 613 181 614 q 170 615 163 616 q 144 619 141 619 q 128 619 123 625 q 125 632 125 637 l 162 638 l 252 632 l 309 634 l 325 634 q 332 634 344 635 q 355 637 359 637 q 366 637 379 634 q 378 622 370 614 l 354 612 q 344 611 330 610 q 315 610 308 605 q 306 604 303 601 q 296 590 285 544 l 266 467 q 243 382 233 331 q 230 313 228 304 l 309 371 q 318 379 327 389 q 349 405 368 423 q 415 469 435 486 l 511 558 q 534 578 543 593 q 537 596 533 598 q 526 602 521 604 q 506 612 482 614 q 474 615 464 617 l 464 622 q 464 625 465 634 q 477 637 482 637 q 499 637 523 633 q 547 628 587 628 q 626 628 651 630 q 662 631 665 631 q 669 631 677 630 l 677 615 q 632 602 616 595 q 612 593 563 564 q 483 496 396 419 l 319 352 l 314 346 q 318 338 321 333 l 377 260 l 435 181 q 438 175 457 147 q 467 130 481 114 q 486 108 496 94 q 511 71 532 46 q 540 37 553 31 q 571 22 614 14 q 613 2 610 -7 l 584 -7 q 535 0 476 1 q 432 64 410 100 l 402 109 l 380 141 l 325 220 q 302 258 272 292 q 266 298 261 305 q 252 298 243 292 q 234 287 222 278 l 182 94 q 175 63 175 43 q 175 41 176 34 q 190 23 206 18 q 221 15 236 13 q 251 12 263 9 q 268 6 268 1 q 268 -1 268 -4 q 257 -8 242 -8 q 207 -8 184 -5 l 155 -6 l 136 -5 l 83 -6 q 79 -6 69 -8 l 14 -9 l 14 8 q 19 11 35 14 q 76 20 91 34 q 106 48 112 80 q 114 87 121 107 l 144 215 l 156 278 q 157 283 158 292 z"},"R":{"x_min":0,"x_max":625,"ha":625,"o":"m 33 12 q 45 13 55 16 q 63 17 85 22 q 113 25 128 36 q 133 39 135 42 q 136 45 147 160 l 165 347 q 180 473 181 510 q 182 522 186 541 l 188 584 q 188 591 183 597 q 174 605 163 608 q 109 612 98 614 q 95 621 95 624 q 95 626 98 632 q 104 634 109 634 q 141 634 176 633 q 210 632 218 632 l 365 636 l 385 637 q 427 638 457 629 q 486 620 509 599 q 532 577 541 551 q 550 524 550 507 q 550 458 514 415 q 479 372 397 330 q 410 308 518 140 q 528 124 550 88 q 572 53 591 39 q 610 25 639 21 q 653 20 674 15 l 672 -5 q 653 -5 623 -3 q 568 0 540 0 l 469 0 l 438 -2 l 434 -2 q 428 -2 425 -4 q 418 1 418 11 q 423 16 430 18 q 444 21 481 21 q 498 21 510 30 q 504 49 473 92 q 467 100 421 169 l 328 309 q 293 302 255 302 q 249 302 230 303 l 218 172 l 208 83 l 207 62 q 206 51 206 48 q 206 45 208 37 q 228 28 253 24 q 278 20 300 14 q 301 9 301 6 q 301 3 301 -1 q 286 -1 280 -1 q 273 -1 255 0 q 229 1 204 1 q 149 1 115 -1 q 80 -3 54 -3 q 46 -3 38 -3 q 36 -3 30 -2 q 31 2 31 5 q 31 10 33 12 z m 265 606 l 262 597 q 253 572 252 534 q 252 530 252 526 l 243 446 q 236 360 234 340 l 234 332 q 247 327 274 327 q 287 327 322 333 q 345 338 373 352 q 393 362 412 380 q 439 411 442 416 q 456 438 465 465 q 473 492 473 513 q 473 559 441 587 q 409 616 336 616 q 294 616 265 606 z"},"T":{"x_min":0,"x_max":583,"ha":583,"o":"m 135 652 q 138 644 147 638 q 159 631 183 631 l 225 632 l 244 630 l 284 631 l 336 631 l 372 633 l 420 631 l 461 633 q 468 633 478 633 q 506 632 512 632 q 519 632 534 633 q 548 633 594 634 q 640 635 664 652 l 671 651 l 682 651 q 673 603 664 570 q 659 552 657 540 q 656 531 652 513 q 641 514 633 516 q 632 571 611 592 q 590 613 531 613 q 479 613 436 608 q 422 606 415 604 q 413 598 411 594 q 405 569 391 455 q 387 420 354 239 l 318 62 q 316 49 315 46 q 312 36 312 31 q 312 24 318 21 q 328 15 358 14 q 365 14 396 12 q 415 10 417 9 q 419 8 421 5 l 418 -11 q 385 -10 365 -8 q 345 -5 333 -5 q 252 -5 135 -10 q 138 1 143 10 q 167 13 196 15 q 203 17 214 19 q 230 22 235 26 q 239 30 243 38 q 257 74 274 197 l 319 449 q 340 570 342 608 q 328 610 311 610 q 218 610 189 604 q 161 597 141 581 q 122 566 86 516 q 78 517 69 518 q 73 531 78 542 q 100 595 115 652 l 129 652 z"},"P":{"x_min":0,"x_max":531,"ha":531,"o":"m 13 14 q 17 16 22 16 q 69 20 90 27 q 104 32 110 41 q 113 45 122 84 q 125 106 149 214 q 153 237 159 272 q 161 281 169 333 q 170 342 180 394 l 191 457 l 193 476 q 215 577 215 604 q 215 606 212 612 q 205 617 187 618 q 183 619 174 620 l 150 620 l 139 619 l 131 619 q 126 619 116 621 q 116 627 122 643 q 130 643 179 640 q 229 637 264 637 q 299 637 345 641 q 362 643 370 643 q 418 643 457 626 q 460 625 465 623 l 500 604 q 527 582 536 570 q 552 551 563 523 q 574 495 574 468 q 574 449 571 437 l 559 394 q 552 376 538 356 q 532 346 516 333 q 509 327 504 322 q 477 300 439 284 q 419 275 395 272 q 348 266 341 266 q 334 266 315 269 q 282 274 270 278 l 270 281 q 270 284 272 293 q 286 292 320 290 q 327 291 343 292 q 377 298 394 308 q 429 328 453 352 q 476 376 490 412 q 500 438 500 477 q 500 507 484 536 q 469 566 450 583 q 432 601 404 611 q 376 621 326 621 q 308 621 290 617 q 284 599 280 572 q 278 560 275 547 l 231 300 l 205 176 q 200 144 198 131 q 195 118 192 102 q 190 85 187 75 q 182 57 182 46 q 182 38 190 32 q 198 26 225 23 q 252 21 263 16 q 263 8 263 4 q 263 -3 261 -6 q 249 -6 203 -2 l 107 0 q 62 0 13 -6 z"},"|":{"x_min":0,"x_max":500,"ha":500,"o":"m 264 642 l 307 642 l 307 -247 l 264 -247 z"},"t":{"x_min":0,"x_max":250,"ha":250,"o":"m 180 355 l 152 355 l 138 355 l 106 354 l 100 354 q 101 365 108 379 q 179 381 192 383 q 202 406 208 420 q 223 452 239 496 q 244 510 250 521 q 260 523 274 523 q 286 523 297 521 l 298 513 q 298 503 254 405 q 249 394 246 382 q 260 380 262 380 l 272 380 l 289 379 l 336 380 q 336 364 330 354 q 311 352 279 352 q 263 352 259 352 q 234 349 230 347 l 149 157 q 136 129 104 51 q 104 48 107 44 l 113 43 q 126 43 146 60 q 189 97 228 146 q 236 141 243 135 q 193 76 173 57 q 153 39 123 18 q 92 -2 85 -4 q 74 -9 62 -9 q 50 -9 44 -4 q 39 1 39 11 q 39 25 62 77 l 83 123 l 157 296 q 171 330 180 355 z"},"M":{"x_min":0,"x_max":823,"ha":823,"o":"m -25 -1 l -25 3 q -25 13 -21 19 q 13 22 29 29 q 40 32 49 40 q 58 48 73 79 q 89 109 114 185 l 158 311 q 167 341 170 351 l 230 515 q 243 552 252 577 q 258 590 258 597 q 258 611 246 617 q 234 623 197 626 q 153 625 150 625 l 144 625 l 139 645 q 157 646 160 646 q 174 645 179 645 l 221 646 q 261 646 289 644 q 299 643 319 643 q 321 640 322 637 q 327 625 332 596 l 347 516 q 352 498 360 449 q 376 357 382 309 q 397 239 401 205 q 402 200 413 140 q 417 113 419 105 q 442 139 459 168 q 476 196 517 273 l 621 454 l 643 492 q 682 566 731 645 q 764 643 794 643 q 798 643 804 643 q 810 644 818 644 l 875 645 q 878 645 884 644 l 882 628 q 870 624 846 620 q 812 613 802 606 q 791 599 787 588 q 772 490 747 349 l 703 95 l 702 91 q 701 84 700 62 q 699 54 698 49 l 697 44 q 697 42 699 38 q 708 31 716 28 q 727 24 767 19 q 785 16 794 14 l 794 10 q 794 6 792 0 q 771 -1 761 -1 q 738 -1 706 2 q 682 4 646 4 q 615 4 572 2 q 557 2 552 2 q 545 2 535 3 q 533 8 533 11 q 533 15 537 22 q 549 23 555 23 q 600 25 616 34 q 623 37 627 46 q 634 58 642 111 l 662 226 l 685 359 q 691 396 695 432 q 702 468 706 499 q 710 531 713 546 q 717 568 718 581 q 635 436 614 404 q 609 396 550 292 l 529 250 q 519 237 512 225 q 429 77 393 7 q 385 -8 378 -19 l 360 -19 q 360 5 358 26 q 354 79 349 112 q 348 118 335 182 l 307 340 q 302 363 301 376 q 300 389 296 408 q 290 436 279 494 l 267 557 q 263 549 261 540 l 209 392 l 177 297 q 163 261 143 190 q 123 120 105 74 q 101 61 101 53 q 101 44 107 38 q 114 32 141 22 q 153 21 160 19 q 188 17 198 15 q 201 14 204 10 q 204 1 201 -6 l 167 -5 l 145 -4 q 142 -4 137 -4 q 93 0 47 0 q 44 0 -25 -1 z"},"g":{"x_min":0,"x_max":323,"ha":323,"o":"m 91 -24 q 54 6 43 20 q 40 24 40 30 q 40 38 45 43 q 50 49 70 58 q 89 66 134 95 q 129 102 111 121 l 95 138 q 89 149 84 167 q 80 185 80 203 q 80 232 89 260 q 102 300 121 328 q 141 356 161 372 q 174 383 194 390 q 224 400 245 400 q 270 400 295 388 q 311 380 332 380 q 340 380 352 382 q 363 383 368 383 q 372 383 379 382 q 381 368 381 361 q 381 356 377 351 q 370 350 366 350 q 355 350 332 356 q 323 359 315 361 q 329 331 329 295 q 329 224 281 162 q 232 99 168 86 q 133 79 114 63 q 106 58 106 48 q 106 32 131 12 q 163 -4 189 -16 q 264 -42 302 -75 q 331 -100 331 -143 q 331 -165 319 -183 q 308 -202 281 -218 q 264 -229 224 -238 q 184 -247 147 -247 q 81 -247 51 -240 q -3 -229 -34 -213 q -64 -197 -83 -172 q -93 -158 -93 -144 q -93 -122 -73 -106 q -44 -83 91 -24 z m 164 108 q 189 112 207 126 q 215 133 234 166 q 254 199 263 225 q 285 286 285 325 q 285 352 272 366 q 259 380 239 380 q 217 380 197 362 q 177 344 149 272 q 121 201 121 162 q 121 141 133 126 q 146 111 164 108 z m -23 -180 q 4 -205 49 -216 q 57 -218 64 -221 q 73 -223 94 -226 q 125 -228 146 -228 q 190 -228 230 -213 q 270 -199 282 -184 q 290 -174 290 -159 q 290 -132 259 -105 q 235 -85 164 -58 q 131 -45 111 -37 q 78 -47 26 -76 q -2 -91 -16 -104 q -31 -117 -32 -120 q -38 -132 -38 -144 q -38 -165 -23 -180 z"},"j":{"x_min":0,"x_max":208,"ha":208,"o":"m 213 568 q 213 583 226 595 q 238 606 257 606 q 268 606 276 597 q 285 587 285 573 q 285 557 275 547 q 265 538 247 538 q 232 538 223 547 q 213 556 213 568 z m -199 -175 q -188 -171 -183 -171 q -175 -171 -166 -179 q -157 -188 -152 -203 q -146 -219 -138 -224 q -119 -224 -104 -219 q -86 -212 -73 -200 q -59 -188 -37 -156 q -21 -132 4 -78 q 29 -25 42 9 q 49 28 56 44 l 121 202 l 144 257 q 151 272 163 298 q 176 324 176 343 q 176 348 173 351 q 170 354 167 354 q 160 354 141 341 q 114 323 74 272 q 67 276 61 282 q 83 313 116 346 q 150 379 185 396 q 207 406 229 406 q 236 400 236 393 q 236 344 170 195 q 163 180 156 161 q 136 105 97 18 q 40 -110 18 -144 q -4 -179 -33 -203 q -62 -227 -86 -234 q -121 -246 -148 -246 q -173 -246 -184 -241 q -201 -233 -211 -220 q -217 -213 -217 -201 q -217 -185 -199 -175 z"},"i":{"x_min":0,"x_max":229,"ha":229,"o":"m 208 578 q 208 595 221 608 q 234 622 251 622 q 268 622 280 610 q 292 598 292 583 q 292 563 277 547 q 268 538 245 538 q 229 538 218 549 q 208 560 208 578 z m 188 358 q 178 358 173 357 q 150 345 140 336 q 118 319 98 296 l 70 290 q 107 340 153 369 q 199 398 226 398 q 237 398 242 392 q 248 387 248 378 q 248 354 221 298 q 217 292 205 263 q 175 199 142 142 q 131 124 119 98 q 112 84 106 75 q 91 50 91 38 q 91 34 94 31 q 97 29 101 29 q 106 29 116 35 q 133 44 157 67 q 181 90 199 119 l 219 119 q 205 93 177 59 q 149 24 114 4 q 88 -12 67 -12 q 52 -12 44 -5 q 37 1 37 12 q 37 50 92 154 l 171 302 q 183 325 188 338 q 191 347 191 350 q 191 352 188 358 z"},"y":{"x_min":0,"x_max":333,"ha":333,"o":"m -138 -203 q -128 -214 -120 -217 q -113 -220 -95 -220 q -69 -220 -34 -206 q 1 -191 18 -176 q 49 -155 90 -108 q 112 -83 128 -43 q 144 -3 151 57 q 159 117 159 161 q 159 186 156 254 q 154 300 149 317 q 144 334 135 342 q 131 346 124 346 q 113 346 104 336 q 87 315 71 256 l 67 255 q 62 255 55 261 q 72 325 79 340 q 94 372 105 384 q 112 391 128 398 q 136 399 140 399 q 168 399 186 363 q 209 312 209 225 q 209 185 203 126 q 198 68 191 40 q 183 0 182 -9 q 185 -6 188 -1 q 219 45 241 88 q 259 121 273 166 q 288 210 296 258 q 301 286 301 320 q 301 332 300 341 q 299 353 299 355 q 299 379 309 391 q 313 398 326 398 q 338 398 344 391 q 351 384 351 369 q 351 345 323 252 q 285 123 244 53 q 183 -54 102 -136 q 47 -192 -11 -218 q -70 -243 -114 -243 q -172 -243 -194 -228 q -215 -213 -215 -198 q -215 -188 -208 -181 q -201 -174 -191 -174 q -177 -174 -162 -182 q -155 -186 -138 -203 z"},"@":{"x_min":0,"x_max":917,"ha":917,"o":"m 688 468 l 630 273 q 598 162 592 134 q 585 105 585 87 q 585 72 595 61 q 606 50 621 50 q 657 50 707 86 q 757 122 793 202 q 829 282 829 369 q 829 452 788 523 q 748 594 675 632 q 601 669 512 669 q 399 669 303 610 q 206 550 150 438 q 93 325 93 204 q 93 92 143 0 q 192 -92 282 -139 q 372 -186 476 -186 q 604 -186 708 -117 q 812 -48 868 84 l 896 84 q 853 -50 737 -133 q 621 -216 473 -216 q 357 -216 257 -161 q 158 -106 103 -5 q 47 96 47 217 q 47 346 108 457 q 168 569 278 632 q 387 694 509 694 q 610 694 692 653 q 773 611 815 531 q 858 450 858 360 q 858 271 818 183 q 778 95 717 55 q 655 15 588 15 q 551 15 532 33 q 514 50 514 82 q 514 109 522 154 q 455 73 411 44 q 367 15 330 15 q 295 15 269 46 q 242 77 242 128 q 242 199 288 287 q 334 375 410 430 q 466 471 511 471 q 543 471 565 454 q 587 437 595 403 l 611 457 z m 517 448 q 479 448 441 409 q 387 352 348 256 q 319 186 319 143 q 319 112 336 93 q 354 74 375 74 q 403 74 434 95 q 465 116 500 161 q 534 206 549 249 q 577 328 577 377 q 577 410 559 429 q 542 448 517 448 z"},".":{"x_min":0,"x_max":219,"ha":219,"o":"m 41 40 q 41 61 57 77 q 73 93 94 93 q 114 93 128 78 q 143 63 143 40 q 143 17 128 1 q 113 -14 92 -14 q 71 -14 56 2 q 41 18 41 40 z"},"p":{"x_min":0,"x_max":406,"ha":406,"o":"m -138 -236 q -120 -231 -91 -228 q -76 -227 -69 -226 q -62 -224 -55 -223 q -48 -220 -45 -216 q -40 -210 -32 -190 l 17 -63 q 27 -39 36 -8 q 42 11 49 29 q 56 47 57 52 q 60 63 62 68 l 107 195 q 110 202 144 302 q 154 333 163 363 q 128 357 102 349 q 97 348 87 345 q 69 337 64 337 q 61 337 52 341 l 51 346 q 51 353 59 358 q 83 373 172 392 q 196 453 201 475 q 208 504 217 516 q 223 517 229 517 q 236 517 250 516 q 258 507 258 501 l 256 495 q 255 492 250 472 q 247 461 241 444 q 228 412 225 400 q 246 402 253 402 q 261 402 277 401 l 279 401 q 305 401 333 387 q 373 368 391 335 q 409 302 409 258 q 409 226 396 188 q 384 151 358 113 q 332 74 299 48 q 266 22 240 13 q 182 -7 163 -7 q 149 -7 132 -3 q 115 0 95 8 q 76 -31 30 -161 q 21 -187 16 -199 q 11 -212 11 -219 l 11 -223 l 17 -228 q 30 -231 48 -232 q 66 -233 80 -236 q 83 -238 86 -239 l 89 -247 q 89 -250 86 -252 q 67 -251 57 -251 q 50 -251 46 -252 l 34 -252 l -56 -249 q -80 -249 -93 -252 q -110 -251 -123 -251 l -141 -251 l -141 -248 q -141 -243 -138 -236 z m 268 67 q 313 117 333 169 q 352 221 352 260 q 352 285 345 311 q 342 324 331 335 q 316 351 302 357 q 278 367 242 367 q 230 367 215 366 q 183 265 162 209 l 121 93 q 116 79 114 65 q 113 59 113 51 q 113 34 122 27 q 137 16 163 16 q 186 16 208 25 q 224 32 268 67 z"},"X":{"x_min":0,"x_max":740,"ha":740,"o":"m -10 -6 l -10 12 q -5 15 5 18 q 14 21 25 26 q 40 32 56 41 q 103 66 126 84 l 213 155 q 235 172 300 228 l 354 275 q 355 277 365 284 l 392 308 q 378 329 371 341 q 368 346 364 351 q 338 397 319 430 l 269 513 q 251 548 225 584 q 212 603 193 612 q 174 621 126 625 q 114 626 105 628 l 104 646 l 129 646 l 210 644 q 215 644 226 645 q 274 643 298 643 l 353 644 q 364 644 374 643 q 384 642 391 642 l 400 642 q 400 635 400 631 l 400 625 q 330 623 310 612 q 300 607 300 600 l 300 596 q 301 592 312 571 q 315 566 395 424 q 425 370 439 350 q 445 354 539 437 q 618 507 647 539 q 676 571 680 580 q 684 589 684 594 q 684 604 677 608 q 660 619 608 627 l 608 631 q 608 635 610 643 l 616 644 l 640 644 l 689 644 l 703 643 q 706 643 790 639 l 811 639 q 814 639 826 639 l 826 620 q 780 615 723 567 q 713 560 700 551 q 693 546 654 514 l 598 460 q 582 448 575 440 q 550 417 451 331 q 485 267 536 183 q 577 114 594 89 l 619 54 q 625 47 650 31 q 661 26 672 21 q 692 13 705 6 l 705 0 q 705 -3 704 -9 q 687 -9 650 -3 q 613 2 571 2 q 548 2 446 -2 q 446 5 446 9 q 446 13 446 20 q 460 22 473 22 q 504 23 521 36 q 532 42 532 53 q 532 66 519 90 q 473 175 420 255 q 405 280 400 289 q 357 257 279 186 q 184 100 164 69 q 155 56 155 46 q 155 40 164 34 q 180 21 212 17 q 222 15 231 13 q 229 5 227 -3 q 221 -3 218 -3 l 208 -4 l 200 -3 l 145 0 q 114 2 106 2 l 23 -2 q 1 -6 -10 -6 z"},"*":{"x_min":0,"x_max":427,"ha":427,"o":"m 96 410 q 122 420 257 444 q 260 444 264 446 q 256 456 241 471 q 238 474 206 507 q 202 512 146 567 q 159 583 172 595 q 257 492 284 466 q 289 484 294 504 q 303 533 310 555 q 323 599 329 631 q 345 627 365 621 q 361 604 348 568 l 320 487 q 314 472 313 457 q 324 460 333 463 l 354 471 q 379 480 401 486 q 422 491 482 503 q 487 486 491 467 q 481 464 382 444 q 326 433 321 432 q 328 423 333 418 q 338 413 358 395 l 416 340 q 430 327 445 309 q 434 298 417 284 q 413 288 385 319 q 357 351 349 361 q 320 396 300 413 l 278 335 q 268 297 265 278 q 262 259 258 246 q 238 250 222 258 q 226 274 229 285 q 239 312 271 417 q 250 413 202 398 q 155 383 104 375 z"},"Y":{"x_min":0,"x_max":646,"ha":646,"o":"m 72 643 l 80 644 q 85 644 100 642 l 165 636 q 223 636 303 641 q 312 641 315 641 l 320 641 q 323 633 323 629 q 323 627 322 622 l 254 611 q 244 607 244 600 q 244 597 246 593 l 270 545 q 304 476 328 419 q 344 382 377 330 q 473 426 492 443 q 511 459 532 481 q 562 512 589 537 q 631 577 631 595 q 631 605 621 611 q 600 624 547 624 q 542 625 531 625 l 531 630 q 531 634 533 641 l 545 642 l 609 642 l 660 639 q 688 639 721 642 q 742 643 760 643 q 760 636 760 632 q 760 627 759 624 q 754 622 749 621 q 741 620 707 610 q 689 602 675 591 q 664 583 644 562 q 635 554 630 549 q 600 519 584 505 q 569 492 523 447 l 393 321 q 391 312 387 296 q 381 271 375 243 q 367 206 362 187 l 352 144 q 348 124 345 114 q 335 80 335 50 q 335 34 343 28 q 357 18 393 18 q 408 18 417 16 q 427 15 435 15 q 436 11 436 8 q 436 5 434 0 q 410 -2 366 -2 l 333 0 q 318 0 304 0 q 295 0 273 0 q 200 -3 157 -3 q 154 -3 141 -3 l 145 12 l 237 26 q 245 29 248 32 q 254 40 261 67 l 283 143 q 311 266 316 300 q 300 328 241 448 q 212 508 200 527 q 170 590 163 601 q 157 609 153 611 q 151 612 102 620 q 81 622 72 623 q 71 626 71 630 z"},"c":{"x_min":0,"x_max":271,"ha":271,"o":"m 293 313 q 286 319 282 324 q 280 327 273 343 q 266 358 263 361 q 257 367 250 367 q 233 367 214 346 q 178 307 141 218 q 104 129 104 71 q 104 49 110 40 q 115 34 125 34 q 144 34 167 54 q 197 82 229 130 q 238 132 243 132 l 250 132 q 249 123 223 85 q 187 32 156 10 q 125 -11 99 -11 q 77 -11 64 5 q 48 26 48 72 q 48 111 67 167 q 86 223 123 275 q 159 328 182 350 q 206 373 239 389 q 262 400 282 400 q 303 400 319 383 q 334 365 334 341 q 334 326 327 318 q 319 310 309 310 q 303 310 293 313 z"},"!":{"x_min":0,"x_max":219,"ha":219,"o":"m 121 155 q 132 220 141 250 q 166 333 190 451 q 215 568 231 600 q 238 613 246 618 q 254 624 266 624 q 281 624 291 616 q 300 608 300 598 q 300 567 271 504 q 266 494 240 421 q 233 401 214 354 l 180 272 l 133 154 q 125 154 121 155 z m 50 43 q 50 62 66 78 q 83 94 102 94 q 118 94 132 79 q 146 64 146 43 q 146 21 131 5 q 115 -11 95 -11 q 77 -11 64 1 q 59 7 51 30 q 50 35 50 43 z"},"/":{"x_min":0,"x_max":500,"ha":500,"o":"m 400 696 l 443 696 l 99 -135 l 57 -135 z"},"[":{"x_min":0,"x_max":302,"ha":302,"o":"m 47 -228 l 291 625 l 479 625 l 474 605 l 308 605 l 75 -209 l 239 -210 l 234 -229 z"},"6":{"x_min":0,"x_max":469,"ha":469,"o":"m 506 627 q 505 614 502 610 q 498 606 483 602 q 421 586 351 528 q 280 471 234 406 q 188 340 148 243 q 108 145 108 93 q 108 55 126 34 q 144 14 167 14 q 204 14 248 46 q 292 79 323 146 q 354 213 354 264 q 354 289 340 305 q 325 322 307 322 q 295 322 280 317 q 264 313 250 304 q 247 304 246 306 q 242 311 242 319 q 242 329 256 338 q 283 355 325 355 q 348 355 371 343 q 393 330 406 303 q 418 276 418 245 q 418 144 331 60 q 256 -12 180 -12 q 124 -12 90 25 q 56 62 56 136 q 56 179 65 217 q 83 285 122 352 q 161 419 221 477 q 267 521 323 558 q 396 605 443 619 q 475 628 479 630 q 489 634 492 634 q 497 634 506 627 z"},"r":{"x_min":0,"x_max":302,"ha":302,"o":"m 160 359 q 144 347 130 332 q 126 327 85 273 l 65 272 q 78 298 111 337 q 144 375 168 390 q 184 399 204 400 q 216 397 220 391 q 225 385 225 377 q 225 369 223 360 q 218 333 202 284 q 186 234 173 205 l 147 145 l 146 136 q 152 148 173 188 q 253 339 288 375 q 314 400 349 400 q 368 400 385 385 q 398 373 398 353 q 398 330 384 314 q 374 303 356 303 q 341 303 335 310 q 329 317 327 345 q 321 358 313 358 q 305 358 296 350 q 273 329 208 215 q 143 102 127 57 q 110 13 100 -3 q 95 -12 80 -12 q 67 -12 61 -7 q 56 -2 56 5 q 56 15 61 27 q 82 79 128 216 l 162 321 q 166 335 167 339 l 170 346 q 170 351 160 359 z"},"2":{"x_min":0,"x_max":469,"ha":469,"o":"m 381 62 l 365 0 l 17 0 l 20 13 q 218 201 286 271 q 368 358 394 413 q 411 446 411 490 q 411 539 387 563 q 364 588 322 588 q 275 588 242 563 q 209 538 178 471 l 151 471 q 179 553 228 593 q 277 632 337 632 q 407 632 446 594 q 486 556 486 495 q 486 460 475 433 q 461 397 427 359 q 393 320 278 218 l 103 62 z"},"{":{"x_min":0,"x_max":479,"ha":479,"o":"m 411 -199 l 411 -216 q 329 -205 278 -150 q 227 -95 227 -28 q 227 8 238 54 q 250 100 250 127 q 250 162 220 192 q 190 223 138 229 l 138 250 q 190 256 220 287 q 250 317 250 352 q 250 378 238 425 q 227 471 227 507 q 227 573 278 628 q 329 684 411 694 l 411 677 q 354 664 327 633 q 300 602 300 565 q 300 536 311 489 q 322 441 322 408 q 322 359 286 312 q 250 266 178 241 q 249 215 285 167 q 322 120 322 71 q 322 38 311 -10 q 300 -57 300 -86 q 300 -123 327 -154 q 354 -185 411 -199 z"},"9":{"x_min":0,"x_max":469,"ha":469,"o":"m 28 -6 q 29 7 32 11 q 36 16 51 20 q 113 35 184 93 q 254 151 300 216 q 346 281 386 379 q 426 477 426 528 q 426 566 409 587 q 391 607 367 607 q 330 607 286 575 q 243 542 211 475 q 180 408 180 358 q 180 333 194 316 q 209 299 227 299 q 239 299 255 304 q 271 309 285 318 q 288 318 289 315 q 292 311 292 303 q 292 292 278 284 q 251 267 209 267 q 186 267 164 279 q 142 292 129 318 q 116 345 116 376 q 116 478 204 562 q 279 633 354 633 q 411 633 444 596 q 478 560 478 485 q 478 442 469 404 q 452 336 413 269 q 374 202 313 145 q 268 101 211 63 q 139 16 91 2 q 60 -6 55 -8 q 46 -12 42 -12 q 38 -12 28 -6 z"}," ":{"x_min":0,"x_max":250,"ha":250,"o":""},"I":{"x_min":0,"x_max":323,"ha":323,"o":"m 8 8 q 24 12 41 15 q 82 21 96 30 q 101 33 106 43 q 112 53 134 145 q 164 268 186 402 l 213 542 l 216 571 q 218 582 218 590 q 218 603 210 608 q 196 617 157 617 l 153 616 l 140 616 q 132 616 120 619 q 122 629 125 640 l 183 637 l 274 634 l 356 638 l 393 640 l 393 623 q 384 621 358 618 q 318 613 309 607 q 303 602 297 590 q 292 578 258 417 l 202 149 q 180 47 180 33 q 180 30 182 26 q 194 19 232 16 q 256 13 271 10 l 273 -5 q 271 -7 266 -7 l 254 -7 q 231 -8 178 -8 l 91 -6 l 68 -6 q 65 -6 46 -8 q 27 -9 8 -9 z"},"H":{"x_min":0,"x_max":771,"ha":771,"o":"m 16 -7 l 16 3 q 16 8 18 11 q 31 14 50 15 q 69 17 78 18 q 84 20 92 20 q 102 21 111 24 q 114 36 124 92 l 144 202 q 148 239 182 425 q 190 470 196 508 q 202 545 208 568 q 208 576 208 580 q 211 595 211 598 q 211 601 208 608 q 198 612 184 612 l 162 614 l 151 614 q 144 614 120 617 q 120 628 123 639 q 126 639 131 639 q 150 638 165 636 q 191 636 208 635 l 247 636 l 272 635 q 328 635 366 638 q 371 639 376 639 q 378 639 383 638 q 385 632 385 629 q 385 625 381 617 l 330 614 l 290 608 q 286 607 283 605 q 279 594 277 584 l 257 466 q 252 436 242 387 q 238 365 236 338 q 297 335 343 335 q 372 335 445 339 l 505 339 l 519 339 q 534 339 563 338 q 592 336 607 336 q 614 336 626 337 l 643 420 l 664 531 q 671 570 672 580 q 673 589 673 601 l 673 610 q 667 616 643 617 q 640 617 633 617 q 609 620 583 621 q 583 631 586 639 l 692 637 l 833 639 q 833 630 829 621 q 822 619 808 618 l 770 614 q 755 614 746 610 l 742 603 q 740 595 738 588 q 734 576 732 561 l 727 518 l 690 318 q 679 262 658 144 l 638 39 q 637 33 637 28 q 642 22 648 21 q 651 21 657 20 q 662 18 672 18 q 683 17 734 9 l 733 5 q 732 -1 729 -5 l 719 -4 l 598 -1 q 527 -1 506 -4 q 496 -5 461 -7 q 461 3 463 10 l 468 12 l 529 18 q 549 20 563 23 l 565 28 q 570 44 576 78 q 577 82 606 222 q 617 274 621 309 q 598 312 561 312 l 515 312 l 509 312 l 500 313 l 487 312 l 460 312 l 398 311 l 367 311 l 328 309 l 308 309 l 285 308 l 253 309 l 230 308 q 228 292 227 278 l 214 207 q 210 184 203 151 q 200 126 192 97 q 189 85 188 75 q 187 61 184 48 q 182 40 182 35 q 182 31 184 27 q 189 23 193 22 q 196 21 219 20 l 278 10 q 278 2 275 -7 l 234 -7 l 125 -1 q 97 -1 48 -6 q 39 -7 16 -7 z"},"4":{"x_min":0,"x_max":469,"ha":469,"o":"m 191 0 l 244 186 l 16 186 l 21 222 l 417 632 l 443 632 l 326 229 l 443 229 l 433 186 l 313 186 l 261 0 z m 257 229 l 339 515 l 63 229 z"},"~":{"x_min":0,"x_max":667,"ha":667,"o":"m 608 377 l 629 377 q 627 315 594 279 q 560 243 510 243 q 488 243 466 250 q 437 258 329 303 q 252 334 221 334 q 187 334 163 313 q 140 292 130 245 l 109 245 q 112 310 145 344 q 178 378 222 378 q 244 378 266 372 q 316 357 408 318 q 483 286 517 286 q 553 286 578 309 q 603 333 608 377 z"},"D":{"x_min":0,"x_max":729,"ha":729,"o":"m 18 -5 l 19 12 q 92 21 101 24 q 105 26 107 30 q 113 38 121 76 l 156 267 l 207 516 q 215 568 218 577 q 223 590 223 597 q 223 605 214 610 q 205 615 157 618 q 137 618 124 622 l 123 628 q 123 632 126 640 q 134 639 159 638 q 191 637 199 637 q 209 637 219 638 q 244 639 248 639 q 291 639 342 638 l 417 639 l 439 637 l 492 638 q 534 638 573 624 q 611 611 641 588 q 671 565 698 526 q 715 500 725 465 q 734 430 734 401 q 734 345 709 281 q 683 216 635 161 q 587 105 520 63 q 472 34 398 15 q 324 -4 262 -4 l 171 -3 l 125 -6 q 114 -6 58 -6 q 30 -6 18 -5 z m 295 613 q 294 604 287 573 q 280 542 277 519 q 275 503 259 424 l 214 195 q 210 175 201 138 q 187 84 187 57 q 187 36 201 26 q 216 16 283 16 q 288 16 328 22 q 382 32 428 52 q 473 73 512 106 q 552 140 582 187 q 613 234 626 273 q 652 345 652 393 q 652 451 624 500 q 596 550 559 575 q 522 600 457 609 q 392 617 344 617 q 312 617 295 613 z"},"^":{"x_min":0,"x_max":500,"ha":500,"o":"m 286 671 l 505 408 l 473 382 l 286 607 l 99 382 l 68 408 z"},"0":{"x_min":0,"x_max":469,"ha":469,"o":"m 52 206 q 52 304 97 409 q 151 536 216 585 q 280 633 343 633 q 398 633 430 592 q 471 538 471 424 q 471 293 403 163 q 361 81 293 28 q 242 -12 192 -12 q 137 -12 102 34 q 52 98 52 206 z m 116 140 q 116 65 136 39 q 156 12 188 12 q 234 12 269 53 q 322 112 374 286 q 415 426 415 502 q 415 559 391 589 q 374 611 341 611 q 292 611 250 562 q 194 500 151 346 q 116 223 116 140 z"},"F":{"x_min":0,"x_max":573,"ha":573,"o":"m 7 -4 q 10 7 15 14 q 32 17 62 17 l 89 18 l 109 21 q 111 21 116 24 q 120 33 123 45 q 129 79 162 283 q 175 368 178 411 q 192 485 200 564 q 202 582 202 592 q 202 610 185 615 q 175 619 100 623 l 100 639 l 136 640 q 146 640 153 639 q 189 636 263 636 l 286 635 l 459 640 l 498 640 l 538 640 l 571 640 l 593 639 l 601 639 l 609 640 l 649 638 q 648 631 647 628 q 646 621 646 613 l 628 546 q 628 543 625 533 l 608 535 q 607 557 603 577 q 599 603 591 608 q 575 619 534 619 l 354 616 q 300 616 275 611 l 273 602 l 262 505 l 244 369 q 255 367 288 366 q 298 366 303 365 l 307 365 l 383 369 l 409 369 l 432 368 l 451 368 l 475 368 q 485 368 502 372 q 523 416 526 425 q 529 434 539 451 q 546 452 549 452 l 555 452 l 553 424 l 529 253 l 512 250 l 511 259 l 511 269 l 506 324 q 501 339 496 342 q 488 347 451 347 l 400 345 l 383 346 l 341 345 l 282 345 l 251 343 q 244 343 239 342 q 232 303 216 185 q 212 152 208 137 q 205 122 203 107 q 201 84 195 51 q 193 36 193 23 q 199 21 202 20 q 252 12 279 11 q 284 11 295 10 q 296 5 296 2 q 296 -1 294 -7 q 285 -7 279 -7 q 275 -7 262 -8 q 253 -8 246 -8 q 236 -8 204 -3 q 190 -3 177 -3 q 163 -2 157 -2 q 94 -2 62 -5 q 40 -7 31 -7 q 20 -7 7 -4 z"},"`":{"x_min":0,"x_max":333,"ha":333,"o":"m 358 461 l 349 461 q 223 546 209 561 q 195 576 195 590 q 195 600 202 606 q 208 612 219 612 q 232 612 246 603 q 260 594 292 552 q 340 489 358 461 z"},"k":{"x_min":0,"x_max":521,"ha":521,"o":"m 243 617 l 248 630 q 310 630 361 645 l 379 645 q 375 633 366 615 l 275 417 l 225 309 l 200 254 q 198 249 196 242 q 211 251 220 259 l 289 323 q 336 364 369 379 q 402 394 433 394 q 464 394 492 371 q 510 355 510 328 q 510 284 462 244 q 414 204 327 204 q 292 204 247 210 q 256 174 277 137 q 288 117 315 75 q 330 54 349 37 q 376 14 395 5 q 414 -3 432 -3 q 458 -3 476 11 q 493 26 493 41 q 493 46 489 51 q 485 55 481 55 q 478 55 460 48 q 454 45 447 45 q 434 45 424 53 q 417 59 417 69 q 417 82 428 91 q 438 100 460 101 q 487 95 498 82 q 512 64 512 41 q 512 16 490 -4 q 467 -23 430 -23 q 372 -23 328 2 q 285 28 242 93 q 218 129 190 213 q 182 202 167 170 q 165 166 156 148 q 147 130 136 106 q 89 5 78 -8 q 71 -17 58 -17 q 49 -17 35 -13 q 32 -7 32 -3 q 32 9 66 73 q 73 86 88 121 q 103 157 118 190 l 193 353 l 222 418 q 253 494 284 562 q 288 576 288 588 q 288 596 283 602 q 278 607 261 612 q 250 615 243 617 z m 226 237 q 254 229 273 229 q 353 229 412 251 q 456 267 472 288 q 489 310 489 328 q 489 336 481 343 q 473 349 457 349 q 425 349 392 338 q 333 319 293 292 q 253 264 226 237 z"},"u":{"x_min":0,"x_max":427,"ha":427,"o":"m 193 357 q 177 351 147 320 q 128 304 112 286 q 101 273 95 269 l 80 272 q 87 287 125 327 q 163 367 202 390 q 221 401 236 401 q 246 401 252 394 q 259 387 259 379 q 259 369 251 352 q 250 349 244 335 q 222 284 159 161 q 104 55 104 41 l 104 38 q 117 40 139 59 q 203 113 235 149 q 240 154 258 173 q 313 230 350 284 q 372 315 413 399 q 426 400 436 400 q 447 400 453 393 q 442 362 414 292 l 323 65 q 315 48 312 33 l 316 33 q 319 33 332 44 q 360 69 379 96 q 388 108 395 115 l 410 112 q 387 68 331 16 q 300 -13 283 -13 q 276 -13 266 -10 q 257 0 257 8 q 257 32 277 79 l 346 240 q 349 245 350 250 q 341 240 312 206 q 241 124 191 77 q 140 30 82 -4 q 68 -12 54 -12 q 47 -12 43 -7 q 38 -2 38 7 q 38 15 42 26 q 49 51 69 90 l 153 254 l 187 327 q 196 342 196 349 q 196 351 193 357 z"},"]":{"x_min":0,"x_max":302,"ha":302,"o":"m -104 -230 l -99 -211 l 66 -210 l 295 605 l 130 604 l 136 625 l 323 625 l 84 -229 z"},"U":{"x_min":0,"x_max":719,"ha":719,"o":"m 116 613 l 123 639 q 141 635 149 635 l 236 633 q 268 633 328 638 q 337 639 366 640 q 368 631 368 626 q 368 624 367 619 q 360 617 322 612 q 284 606 279 603 q 275 600 273 597 q 262 573 250 495 l 216 292 q 202 199 202 162 q 202 144 208 113 q 211 91 222 75 q 237 53 258 38 q 313 10 360 10 q 392 10 410 13 q 476 26 509 45 q 542 65 562 95 q 583 125 601 190 q 613 237 637 396 q 653 507 653 559 q 653 581 637 597 q 621 613 586 617 q 568 619 557 621 l 556 625 q 556 631 559 642 q 625 636 694 636 q 719 636 753 639 l 763 640 l 784 640 l 784 621 q 777 619 755 615 q 725 609 713 602 q 701 594 692 579 q 679 556 674 513 l 653 348 q 644 275 624 193 q 610 135 587 93 q 573 66 540 37 q 515 16 469 0 q 424 -15 362 -15 q 354 -15 329 -13 q 282 -12 240 4 q 199 21 177 41 q 156 61 142 94 q 127 127 127 172 q 127 225 138 275 q 149 326 168 438 l 191 567 q 192 578 192 584 q 192 593 186 598 q 179 603 146 607 q 124 611 116 613 z"},"o":{"x_min":0,"x_max":354,"ha":354,"o":"m 355 277 q 355 164 286 76 q 218 -12 144 -12 q 104 -12 80 18 q 56 47 56 110 q 56 153 75 208 q 94 264 124 300 q 131 309 140 320 q 166 354 201 377 q 237 400 274 400 q 308 400 332 371 q 355 343 355 277 z m 101 55 q 101 33 112 22 q 122 11 146 11 q 168 11 192 34 q 234 75 276 175 q 318 275 318 333 q 318 353 308 365 q 297 377 284 377 q 255 377 224 343 q 171 287 132 187 q 101 106 101 55 z"},"N":{"x_min":0,"x_max":781,"ha":781,"o":"m -10 17 q 0 19 21 20 q 42 21 54 23 q 84 26 99 39 q 108 47 111 62 l 140 197 q 147 233 152 249 l 153 261 l 176 387 q 177 398 184 422 q 191 445 194 494 l 202 530 l 208 592 q 208 601 202 604 q 188 612 104 624 l 108 640 l 288 640 q 293 634 297 627 q 303 617 323 587 l 351 548 q 368 521 385 494 q 403 468 418 441 q 429 423 569 200 q 595 159 605 140 q 625 105 646 71 q 652 102 656 135 q 676 229 680 262 q 682 280 685 296 q 687 307 691 335 l 699 390 q 699 399 710 475 q 722 550 722 578 q 722 585 717 600 q 703 609 647 618 q 628 621 617 624 q 615 631 615 635 l 615 639 l 622 640 q 631 640 741 634 q 760 633 767 633 q 799 633 831 636 q 854 638 866 638 q 864 626 860 616 q 791 610 772 604 q 762 601 758 596 q 754 591 747 551 q 736 495 732 468 q 729 442 725 424 q 720 399 719 391 l 700 257 l 666 58 q 655 -7 655 -19 l 643 -19 q 638 -19 628 -18 q 618 0 605 21 l 465 239 q 456 253 449 266 l 414 318 l 303 494 q 280 529 264 549 q 260 556 255 563 q 250 569 243 581 q 241 584 236 591 q 232 577 226 538 l 215 476 q 206 421 185 311 l 173 252 l 162 166 q 157 129 150 98 q 144 67 144 48 q 144 42 150 35 q 162 30 182 25 q 191 22 210 19 q 213 19 262 7 l 258 -10 q 246 -8 217 -5 q 148 2 121 2 q 108 2 89 1 q 33 -1 17 -1 q 9 -1 -10 -1 z"},"+":{"x_min":0,"x_max":667,"ha":667,"o":"m 106 331 l 346 331 l 346 572 l 389 572 l 389 331 l 631 331 l 631 288 l 389 288 l 389 49 l 346 49 l 346 288 l 106 288 z"},"G":{"x_min":0,"x_max":708,"ha":708,"o":"m 74 277 q 80 308 89 339 q 91 346 108 384 l 117 398 l 123 410 q 160 463 193 499 q 226 536 252 554 q 297 585 350 604 q 421 628 468 634 l 521 640 q 529 641 547 641 q 591 641 658 635 q 691 632 706 627 q 707 616 707 610 q 707 600 705 591 l 698 542 q 695 531 690 517 q 682 518 672 521 l 665 574 q 661 598 657 604 q 654 610 650 612 q 641 618 625 620 q 590 623 585 623 q 531 623 491 613 q 433 598 395 581 q 356 563 317 530 q 278 497 257 470 l 249 460 q 234 441 221 424 q 201 394 174 320 q 157 275 157 229 l 159 198 q 159 195 159 189 q 166 156 179 128 q 193 100 213 78 q 233 56 266 37 q 292 22 317 17 q 355 9 379 9 q 440 9 484 21 q 509 27 524 43 q 533 53 538 70 q 558 146 558 181 q 558 196 546 201 q 517 212 496 212 l 465 211 q 458 211 450 216 q 457 229 459 230 l 477 231 l 515 230 l 555 231 q 567 231 587 230 q 608 229 616 229 q 640 229 652 230 q 664 231 670 231 l 709 229 l 709 214 q 698 211 683 209 q 654 205 647 198 q 636 187 631 161 q 624 119 616 87 l 603 22 l 498 -2 q 460 -10 446 -12 l 400 -17 q 353 -17 304 -12 q 293 -11 276 -5 l 216 17 q 195 28 160 52 q 125 82 117 92 q 100 114 87 143 q 80 159 76 181 q 71 215 71 232 z"},"q":{"x_min":0,"x_max":427,"ha":427,"o":"m 440 403 l 444 403 q 447 403 451 400 q 451 388 446 375 q 428 328 425 318 q 419 296 398 233 l 362 125 q 333 50 316 -8 q 313 -17 300 -54 q 282 -103 276 -124 l 267 -156 q 260 -174 250 -216 q 250 -224 258 -229 l 290 -232 q 293 -232 297 -232 q 306 -233 312 -238 q 312 -242 312 -245 l 312 -250 l 290 -252 q 204 -250 198 -250 q 189 -250 179 -250 q 147 -251 127 -251 l 93 -252 q 86 -252 79 -246 q 80 -238 86 -235 l 113 -233 q 160 -230 177 -219 q 188 -212 196 -195 q 203 -177 231 -89 l 291 76 l 309 139 q 318 163 320 171 q 315 165 304 151 q 264 99 228 61 q 192 24 174 11 q 157 -1 129 -12 q 113 -19 97 -19 q 72 -19 55 1 q 38 21 38 67 q 38 167 140 273 q 263 402 331 402 q 345 402 364 395 q 390 384 409 371 q 425 390 440 403 z m 135 25 q 152 25 167 34 q 181 43 222 83 q 252 112 292 167 q 333 222 351 263 q 369 304 369 333 q 369 356 359 367 q 349 379 336 379 q 323 379 302 367 q 281 355 239 316 q 196 277 168 239 q 124 179 110 142 q 96 105 96 78 q 96 49 106 37 q 116 25 135 25 z"},"d":{"x_min":0,"x_max":406,"ha":406,"o":"m 363 347 l 416 515 q 419 526 426 550 q 427 555 428 558 q 438 590 438 599 q 438 605 432 611 q 418 621 387 628 l 377 631 l 381 645 q 464 645 491 656 l 497 657 q 503 657 510 655 q 506 640 505 635 l 504 632 l 464 511 l 415 354 q 402 314 397 295 q 391 267 383 243 l 313 35 l 315 32 q 333 35 405 115 q 413 111 417 106 q 376 45 326 7 q 290 -20 271 -20 q 268 -20 261 -18 q 258 -13 258 -10 q 258 5 274 58 q 291 111 297 135 q 284 123 259 95 q 210 41 157 5 q 118 -20 87 -20 q 70 -20 60 -6 q 44 15 44 53 q 44 100 66 150 q 79 181 108 229 q 138 278 174 314 q 210 350 243 365 q 276 381 303 381 q 324 381 340 372 q 351 365 363 347 z m 140 30 q 160 30 186 48 q 233 82 275 136 q 316 191 333 246 q 350 301 350 311 q 350 327 338 341 q 326 355 315 355 q 297 355 272 342 q 246 330 218 299 q 202 282 168 228 q 135 173 119 134 q 103 95 103 74 q 103 54 114 42 q 124 30 140 30 z"},"1":{"x_min":0,"x_max":469,"ha":469,"o":"m 162 0 l 312 535 q 234 479 150 444 l 148 471 q 300 542 375 632 l 408 632 l 229 0 z"},"5":{"x_min":0,"x_max":469,"ha":469,"o":"m 161 324 l 262 623 l 307 624 q 328 624 368 622 q 392 620 398 620 q 450 620 463 623 q 470 625 475 633 q 480 640 490 640 l 499 640 l 480 578 q 476 563 472 559 q 447 555 422 555 q 396 555 328 557 q 292 559 268 559 l 216 408 q 244 416 263 416 q 320 416 357 379 q 395 341 395 283 q 395 211 345 139 q 296 66 195 22 q 126 -8 16 -12 q 15 -5 15 0 q 15 5 19 10 q 50 10 106 23 q 163 36 211 69 q 260 101 294 159 q 328 217 328 266 q 328 305 304 330 q 280 354 244 354 q 209 354 161 324 z"}}}
